<svg xmlns="http://www.w3.org/2000/svg" xml:space="preserve" width="64" height="64" fill="#5f6368" stroke="#5f6368" stroke-width="1.1" viewBox="-2.75 -2.75 60.5 60.5"><path d="M55 27.5C55 12.337 42.663 0 27.5 0S0 12.337 0 27.5c0 8.009 3.444 15.228 8.926 20.258l-.026.023.892.752c.058.049.121.089.179.137.474.393.965.766 1.465 1.127q.242.176.489.348.802.552 1.642 1.048.183.108.368.212a27 27 0 0 0 1.88.98l.142.064a27.3 27.3 0 0 0 6.651 2.105l.184.033q1.086.19 2.197.292.135.01.271.021c.738.061 1.484.1 2.24.1.749 0 1.488-.039 2.222-.098l.279-.021a28 28 0 0 0 2.178-.287l.187-.034a27.3 27.3 0 0 0 6.557-2.055q.115-.051.229-.104a28 28 0 0 0 2.25-1.189 28 28 0 0 0 1.581-1q.276-.191.549-.391.66-.473 1.289-.983c.093-.075.193-.14.284-.217l.915-.764-.027-.023C51.523 42.802 55 35.55 55 27.5zm-53 0C2 13.439 13.439 2 27.5 2S53 13.439 53 27.5c0 7.577-3.325 14.389-8.589 19.063a7.5 7.5 0 0 0-.893-.537l-8.467-4.233a2.22 2.22 0 0 1-1.232-1.993v-2.957q.295-.364.617-.817a20.4 20.4 0 0 0 2.616-5.123 3.63 3.63 0 0 0 2.085-3.289v-3.545c0-.867-.318-1.708-.887-2.369v-4.667c.052-.519.236-3.448-1.883-5.864C34.524 9.065 31.541 8 27.5 8s-7.024 1.065-8.867 3.168c-2.119 2.416-1.935 5.345-1.883 5.864v4.667a3.64 3.64 0 0 0-.887 2.369v3.545c0 1.101.494 2.128 1.34 2.821.81 3.173 2.477 5.575 3.093 6.389v2.894a2.23 2.23 0 0 1-1.162 1.958l-7.907 4.313a7 7 0 0 0-.752.476C5.276 41.792 2 35.022 2 27.5zm40.459 20.632q-.525.382-1.067.735-.248.163-.5.321-.708.439-1.442.83-.162.084-.326.167a25.5 25.5 0 0 1-3.488 1.476l-.127.043q-.94.313-1.904.552l-.006.001a26 26 0 0 1-1.964.402l-.054.01c-.621.101-1.247.174-1.875.229q-.166.014-.334.025c-.621.047-1.245.077-1.872.077a25 25 0 0 1-1.895-.078q-.164-.011-.326-.025a26 26 0 0 1-1.89-.233l-.084-.015a25.4 25.4 0 0 1-3.89-.971l-.118-.04a26 26 0 0 1-1.862-.713l-.013-.006a26 26 0 0 1-1.705-.816q-.11-.056-.219-.113a26 26 0 0 1-1.939-1.155 25 25 0 0 1-1.338-.933l-.133-.104.096-.054 7.907-4.313a4.23 4.23 0 0 0 2.205-3.714l-.001-3.602-.23-.278c-.022-.025-2.184-2.655-3.001-6.216l-.091-.396-.341-.221a1.66 1.66 0 0 1-.769-1.392v-3.545c0-.465.197-.898.557-1.223l.33-.298v-5.57l-.009-.131c-.003-.024-.298-2.429 1.396-4.36C21.583 10.837 24.061 10 27.5 10c3.426 0 5.896.83 7.346 2.466 1.692 1.911 1.415 4.361 1.413 4.381l-.009 5.701.33.298c.359.324.557.758.557 1.223v3.545a1.67 1.67 0 0 1-1.181 1.575l-.497.153-.16.495a18.5 18.5 0 0 1-2.496 5.032c-.262.37-.517.698-.736.949l-.248.283V39.8c0 1.612.896 3.062 2.338 3.782l8.467 4.233.16.083c-.107.081-.217.156-.325.234z"/></svg>