<svg xmlns="http://www.w3.org/2000/svg" xml:space="preserve" width="64" height="64" fill="#5f6368" stroke="#5f6368" stroke-width="1.2" viewBox="-3 -3 66 66"><path d="M10.5 6.125c-2.481 0-4.5 2.019-4.5 4.5s2.019 4.5 4.5 4.5 4.5-2.019 4.5-4.5-2.019-4.5-4.5-4.5zm0 7c-1.378 0-2.5-1.121-2.5-2.5s1.122-2.5 2.5-2.5 2.5 1.121 2.5 2.5-1.122 2.5-2.5 2.5z"/><circle cx="50" cy="9.125" r="1"/><circle cx="46" cy="9.125" r="1"/><circle cx="52" cy="12.125" r="1"/><circle cx="48" cy="12.125" r="1"/><circle cx="42" cy="9.125" r="1"/><circle cx="44" cy="12.125" r="1"/><circle cx="38" cy="9.125" r="1"/><circle cx="40" cy="12.125" r="1"/><circle cx="34" cy="9.125" r="1"/><circle cx="36" cy="12.125" r="1"/><path d="M10.5 25.125c-2.481 0-4.5 2.019-4.5 4.5s2.019 4.5 4.5 4.5 4.5-2.019 4.5-4.5-2.019-4.5-4.5-4.5zm0 7c-1.378 0-2.5-1.121-2.5-2.5s1.122-2.5 2.5-2.5 2.5 1.121 2.5 2.5-1.122 2.5-2.5 2.5zM10.5 44.125c-2.481 0-4.5 2.019-4.5 4.5s2.019 4.5 4.5 4.5 4.5-2.019 4.5-4.5-2.019-4.5-4.5-4.5zm0 7c-1.378 0-2.5-1.121-2.5-2.5s1.122-2.5 2.5-2.5 2.5 1.121 2.5 2.5-1.122 2.5-2.5 2.5z"/><path d="M60 16.517V4.733A4.613 4.613 0 0 0 55.392.125H4.608A4.613 4.613 0 0 0 0 4.733v11.783c0 1.469.703 2.764 1.777 3.608C.703 20.969 0 22.265 0 23.733v11.783c0 1.469.703 2.764 1.777 3.608C.703 39.969 0 41.265 0 42.733v11.783a4.613 4.613 0 0 0 4.608 4.608h27.875c2.682.494 5.622.75 8.517.75 8.672 0 17.816-2.249 18.895-6.553a1 1 0 0 0 .105-.446v-27.75a1 1 0 0 0-.096-.416c-.347-1.464-1.648-2.697-3.562-3.685A4.614 4.614 0 0 0 60 16.517zm-58 19V23.733a2.61 2.61 0 0 1 2.608-2.608h20.86c-1.809.971-3.037 2.169-3.372 3.584a1 1 0 0 0-.096.416v13H4.608A2.61 2.61 0 0 1 2 35.517zm22.626-6.137.139.087q.264.165.55.324.082.046.163.09.35.188.727.364.061.028.123.055.331.151.682.293l.206.083a21 21 0 0 0 1.751.604l.236.07q.431.127.879.244l.071.019q.483.123.985.235l.253.055q.429.093.867.177l.174.034q.514.095 1.041.179l.251.039q.436.068.88.126l.243.032q.537.068 1.081.125.11.011.22.021.458.045.919.082l.278.022q.551.041 1.105.07l.158.007q.488.024.977.037l.295.008q.56.013 1.118.014c.558.001.745-.006 1.118-.014l.295-.008q.489-.013.977-.037l.158-.007a50 50 0 0 0 2.302-.174l.22-.021q.544-.056 1.081-.125l.243-.032q.443-.059.88-.126.126-.019.251-.039a40 40 0 0 0 1.041-.179l.174-.034q.44-.084.867-.177l.253-.055q.5-.111.985-.235l.071-.019q.448-.116.879-.244l.236-.07q.437-.132.855-.274l.048-.016a23 23 0 0 0 1.054-.397q.35-.142.682-.293.062-.028.123-.055.377-.176.727-.364l.163-.09q.285-.157.55-.324.07-.043.139-.087a9 9 0 0 0 .589-.414l.038-.026v4.988a1 1 0 0 0-.021.353q.023.109.024.219c0 .11-.031.222-.058.333a1.7 1.7 0 0 1-.2.485 2.6 2.6 0 0 1-.407.538q-.055.06-.114.12c-2.117 2.048-8.364 3.898-16.22 3.898-7.851 0-14.095-1.848-16.216-3.895a4 4 0 0 1-.124-.131q-.141-.15-.253-.3a3 3 0 0 1-.152-.238 1.709 1.709 0 0 1-.198-.485c-.027-.108-.058-.217-.058-.325q.002-.107.021-.212a1 1 0 0 0-.021-.385v-4.964l.038.026q.277.213.588.415zm33.231 14.712a2.581 2.581 0 0 1-.523.764q-.055.06-.114.12c-2.117 2.048-8.364 3.898-16.22 3.898-7.851 0-14.095-1.848-16.216-3.895a4 4 0 0 1-.124-.131q-.142-.15-.253-.3a3 3 0 0 1-.152-.238 1.709 1.709 0 0 1-.198-.485c-.023-.094-.047-.189-.05-.283v-.12q.004-.068.013-.135c.014-.086-.005-.17-.014-.255L24 38.125v-.186c.04.031.087.06.129.09a10 10 0 0 0 .733.494 13 13 0 0 0 .556.327c2.086 1.137 4.954 1.958 8.125 2.455l.072.011c1.023.159 2.073.283 3.141.374q.34.03.682.055.334.024.67.042.453.026.906.044.264.011.529.02.73.023 1.458.024.727-.001 1.455-.023.266-.008.533-.02a53 53 0 0 0 1.574-.086q.336-.025.671-.054a46 46 0 0 0 3.17-.377l.046-.007c3.465-.542 6.564-1.473 8.681-2.779a8.488 8.488 0 0 0 .73-.491c.045-.033.096-.064.14-.098v4.988a1 1 0 0 0-.021.353c.01.073.02.145.02.219 0 .11-.031.222-.058.333a2 2 0 0 1-.085.259zM4.608 57.125A2.61 2.61 0 0 1 2 54.517V42.733a2.61 2.61 0 0 1 2.608-2.608H22v13.75h.296c.016.037.039.073.057.11a4.2 4.2 0 0 0 .392.66q.155.216.339.424.092.105.191.208a8 8 0 0 0 1.43 1.147q.575.37 1.248.702zM58 52.619a1 1 0 0 0-.02.094c-.409 2.493-7.33 5.162-16.98 5.162-3.079 0-5.875-.273-8.276-.724l.001-.008c-4.973-.941-7.725-2.53-8.495-3.87l-.002-.004c-.035-.062-.06-.123-.087-.183a1.7 1.7 0 0 1-.121-.373l-.008-5.765c.036.028.079.054.116.082a10 10 0 0 0 .733.494 13 13 0 0 0 .556.327c2.086 1.137 4.954 1.958 8.125 2.455l.072.011c1.023.159 2.073.283 3.141.374q.34.03.682.055.334.024.67.042.453.026.906.044.264.011.529.02.73.023 1.458.024.727-.001 1.455-.023.266-.008.533-.02a53 53 0 0 0 1.574-.086q.336-.025.671-.054a46 46 0 0 0 3.17-.377l.046-.007c3.465-.542 6.564-1.473 8.681-2.779a8.488 8.488 0 0 0 .73-.491c.045-.033.096-.064.14-.098zM58 25.5c0 2.537-7.271 5.375-17 5.375-9.73 0-17-2.838-17-5.375 0-.128.031-.258.068-.388.04-.129.094-.261.174-.397l.009-.018c.333-.556 1.004-1.154 2.037-1.731a16 16 0 0 1 .695-.357 16 16 0 0 1 .867-.378c1.162-.463 2.562-.874 4.138-1.21a36 36 0 0 1 1.511-.288c.137-.023.271-.047.41-.069 4.477-.69 9.7-.69 14.177 0q.21.034.416.07a34 34 0 0 1 1.501.286C54.878 22.058 58 23.841 58 25.5zm0-8.983a2.61 2.61 0 0 1-2.608 2.608h-4.63c-.058-.013-.122-.021-.18-.034a37 37 0 0 0-2.021-.379l-.201-.031a48.5 48.5 0 0 0-7.36-.556c-2.479 0-4.997.189-7.358.556l-.206.031a38 38 0 0 0-2.015.378c-.059.013-.125.021-.184.034H4.608A2.61 2.61 0 0 1 2 16.517V4.733a2.61 2.61 0 0 1 2.608-2.608h50.783A2.61 2.61 0 0 1 58 4.733z"/></svg>